<mxfile host="Electron" modified="2023-10-24T09:44:12.807Z" agent="Mozilla/5.0 (Windows NT 10.0; Win64; x64) AppleWebKit/537.36 (KHTML, like Gecko) draw.io/22.0.2 Chrome/114.0.5735.289 Electron/25.8.4 Safari/537.36" etag="M7ggo7mdSmtz7SVV8bZZ" version="22.0.2" type="device">
  <diagram name="Страница — 1" id="iNlYeYmjjXd3C39d-4l2">
    <mxGraphModel dx="1036" dy="614" grid="1" gridSize="10" guides="1" tooltips="1" connect="1" arrows="1" fold="1" page="1" pageScale="1" pageWidth="827" pageHeight="1169" math="0" shadow="0">
      <root>
        <mxCell id="0" />
        <mxCell id="1" parent="0" />
        <mxCell id="xlSElrXfy6_2lIgS34x6-15" value="" style="edgeStyle=orthogonalEdgeStyle;rounded=0;orthogonalLoop=1;jettySize=auto;html=1;" edge="1" parent="1" source="cc4zNFHhKaRhgb1RR8C4-1" target="xlSElrXfy6_2lIgS34x6-14">
          <mxGeometry relative="1" as="geometry" />
        </mxCell>
        <mxCell id="cc4zNFHhKaRhgb1RR8C4-1" value="приготовление тыквенного супа" style="rounded=0;whiteSpace=wrap;html=1;" parent="1" vertex="1">
          <mxGeometry x="354" y="220" width="120" height="60" as="geometry" />
        </mxCell>
        <mxCell id="xlSElrXfy6_2lIgS34x6-2" value="" style="edgeStyle=orthogonalEdgeStyle;rounded=0;orthogonalLoop=1;jettySize=auto;html=1;" edge="1" parent="1" source="xlSElrXfy6_2lIgS34x6-1" target="cc4zNFHhKaRhgb1RR8C4-1">
          <mxGeometry relative="1" as="geometry">
            <Array as="points">
              <mxPoint x="370" y="300" />
              <mxPoint x="370" y="300" />
            </Array>
          </mxGeometry>
        </mxCell>
        <mxCell id="xlSElrXfy6_2lIgS34x6-1" value="мама" style="text;html=1;align=center;verticalAlign=middle;resizable=0;points=[];autosize=1;strokeColor=none;fillColor=none;" vertex="1" parent="1">
          <mxGeometry x="345" y="348" width="50" height="30" as="geometry" />
        </mxCell>
        <mxCell id="xlSElrXfy6_2lIgS34x6-5" value="" style="edgeStyle=orthogonalEdgeStyle;rounded=0;orthogonalLoop=1;jettySize=auto;html=1;" edge="1" parent="1" source="xlSElrXfy6_2lIgS34x6-4" target="cc4zNFHhKaRhgb1RR8C4-1">
          <mxGeometry relative="1" as="geometry">
            <Array as="points">
              <mxPoint x="450" y="310" />
              <mxPoint x="450" y="310" />
            </Array>
          </mxGeometry>
        </mxCell>
        <mxCell id="xlSElrXfy6_2lIgS34x6-4" value="кухонные приборы&lt;br&gt;(кастрюля,&lt;br&gt;&amp;nbsp;блендер и т.д.)" style="text;html=1;align=center;verticalAlign=middle;resizable=0;points=[];autosize=1;strokeColor=none;fillColor=none;" vertex="1" parent="1">
          <mxGeometry x="395" y="333" width="130" height="60" as="geometry" />
        </mxCell>
        <mxCell id="xlSElrXfy6_2lIgS34x6-13" value="" style="edgeStyle=orthogonalEdgeStyle;rounded=0;orthogonalLoop=1;jettySize=auto;html=1;exitX=0.649;exitY=1.073;exitDx=0;exitDy=0;exitPerimeter=0;entryX=0.637;entryY=-0.03;entryDx=0;entryDy=0;entryPerimeter=0;" edge="1" parent="1" source="xlSElrXfy6_2lIgS34x6-6" target="cc4zNFHhKaRhgb1RR8C4-1">
          <mxGeometry relative="1" as="geometry">
            <mxPoint x="414" y="150" as="sourcePoint" />
          </mxGeometry>
        </mxCell>
        <mxCell id="xlSElrXfy6_2lIgS34x6-6" value="книга рецептов" style="text;html=1;align=center;verticalAlign=middle;resizable=0;points=[];autosize=1;strokeColor=none;fillColor=none;" vertex="1" parent="1">
          <mxGeometry x="359" y="118" width="110" height="30" as="geometry" />
        </mxCell>
        <mxCell id="xlSElrXfy6_2lIgS34x6-9" value="" style="edgeStyle=orthogonalEdgeStyle;rounded=0;orthogonalLoop=1;jettySize=auto;html=1;exitX=1.027;exitY=0.34;exitDx=0;exitDy=0;exitPerimeter=0;entryX=0;entryY=0.25;entryDx=0;entryDy=0;" edge="1" parent="1" source="xlSElrXfy6_2lIgS34x6-8" target="cc4zNFHhKaRhgb1RR8C4-1">
          <mxGeometry relative="1" as="geometry">
            <mxPoint x="260" y="235" as="sourcePoint" />
            <Array as="points">
              <mxPoint x="262" y="235" />
            </Array>
          </mxGeometry>
        </mxCell>
        <mxCell id="xlSElrXfy6_2lIgS34x6-8" value="деньги" style="text;html=1;align=center;verticalAlign=middle;resizable=0;points=[];autosize=1;strokeColor=none;fillColor=none;" vertex="1" parent="1">
          <mxGeometry x="200" y="220" width="60" height="30" as="geometry" />
        </mxCell>
        <mxCell id="xlSElrXfy6_2lIgS34x6-12" value="" style="edgeStyle=orthogonalEdgeStyle;rounded=0;orthogonalLoop=1;jettySize=auto;html=1;exitX=1.022;exitY=0.337;exitDx=0;exitDy=0;exitPerimeter=0;entryX=0;entryY=0.75;entryDx=0;entryDy=0;" edge="1" parent="1" source="xlSElrXfy6_2lIgS34x6-10" target="cc4zNFHhKaRhgb1RR8C4-1">
          <mxGeometry relative="1" as="geometry">
            <Array as="points" />
          </mxGeometry>
        </mxCell>
        <mxCell id="xlSElrXfy6_2lIgS34x6-10" value="продукты:&amp;nbsp;&lt;span style=&quot;&quot;&gt;тыква,&lt;br&gt;картофель,&amp;nbsp;лук, &lt;br&gt;курица,&amp;nbsp;морковь&lt;/span&gt;" style="text;html=1;align=center;verticalAlign=middle;resizable=0;points=[];autosize=1;strokeColor=none;fillColor=none;" vertex="1" parent="1">
          <mxGeometry x="160" y="260" width="120" height="60" as="geometry" />
        </mxCell>
        <mxCell id="xlSElrXfy6_2lIgS34x6-14" value="готовый &lt;br&gt;тыквенный &lt;br&gt;суп-пюре" style="text;html=1;align=center;verticalAlign=middle;resizable=0;points=[];autosize=1;strokeColor=none;fillColor=none;" vertex="1" parent="1">
          <mxGeometry x="520" y="220" width="80" height="60" as="geometry" />
        </mxCell>
      </root>
    </mxGraphModel>
  </diagram>
</mxfile>
